<?xml version="1.0" standalone="no"?>
<!DOCTYPE svg PUBLIC "-//W3C//DTD SVG 20010904//EN"
 "http://www.w3.org/TR/2001/REC-SVG-20010904/DTD/svg10.dtd">
<svg version="1.0" xmlns="http://www.w3.org/2000/svg"
 width="129.000000pt" height="114.000000pt" viewBox="0 0 129.000000 114.000000"
 preserveAspectRatio="xMidYMid meet">

<g transform="translate(0.000000,114.000000) scale(0.100000,-0.100000)"
fill="#000000" stroke="none">
<path d="M70 1075 c-4 -202 2 -994 7 -992 5 1 9 219 10 485 l2 483 559 -1
c446 0 561 2 565 12 4 10 6 10 6 1 1 -18 21 -16 21 2 0 13 -72 15 -585 15
-322 0 -585 -2 -585 -5z"/>
<path d="M1213 1029 c-1 -13 2 -17 10 -12 9 5 9 3 0 -8 -16 -20 -19 -905 -3
-924 6 -7 7 -15 3 -17 -4 -1 -262 -1 -571 2 -310 3 -566 2 -569 -3 -2 -4 -9
-4 -15 -1 -6 4 -9 1 -6 -7 4 -12 101 -14 591 -16 l587 -3 0 499 c-1 392 -3
500 -13 504 -8 3 -14 -3 -14 -14z"/>
<path d="M677 919 c-9 -13 -17 -30 -19 -38 -2 -8 -9 -22 -16 -30 -7 -9 -13
-20 -13 -26 0 -5 -6 -16 -12 -24 -9 -12 -9 -13 1 -7 7 4 12 2 12 -5 0 -8 4 -8
16 2 8 7 13 21 11 31 -3 10 -1 16 4 12 8 -5 13 9 10 29 0 4 5 7 12 7 8 0 7 4
-3 10 -13 8 -13 10 1 10 20 0 34 29 20 43 -6 6 -15 0 -24 -14z"/>
<path d="M457 822 c-27 -32 -28 -42 -7 -72 23 -32 39 -36 71 -19 17 9 18 13 7
27 -11 13 -11 15 3 10 12 -5 15 -1 13 19 -1 14 -7 30 -13 36 -17 17 -59 16
-74 -1z m6 -37 c-3 -9 -8 -14 -10 -11 -3 3 -2 9 2 15 9 16 15 13 8 -4z"/>
<path d="M716 812 c-3 -6 0 -17 8 -25 8 -8 12 -17 9 -21 -4 -3 -1 -6 6 -6 7 0
9 -5 6 -10 -4 -6 -3 -10 2 -9 19 3 27 -2 15 -10 -11 -6 -10 -11 3 -25 9 -9 14
-16 10 -16 -3 0 1 -13 10 -29 8 -17 12 -38 8 -47 -5 -13 -3 -15 8 -9 7 5 4 -4
-9 -19 -12 -16 -22 -34 -22 -40 0 -6 6 -3 14 6 11 15 13 14 13 -13 0 -16 -3
-26 -6 -22 -8 11 -31 15 -31 5 0 -14 38 -44 48 -38 5 3 7 -6 4 -19 -2 -15 0
-25 7 -25 8 0 6 -8 -4 -23 -19 -30 -27 -192 -7 -173 4 4 7 11 8 14 0 4 5 16 9
26 5 11 9 41 9 67 1 26 4 45 7 43 3 -2 10 21 16 51 7 38 6 52 -1 48 -6 -4 -4
2 5 13 9 10 22 36 29 56 12 33 41 56 77 64 7 1 25 11 41 23 16 11 33 17 37 13
5 -4 5 -1 1 6 -6 9 -3 12 9 10 10 -2 20 3 22 10 6 17 -22 15 -37 -3 -7 -8 -16
-12 -21 -9 -5 3 -9 0 -9 -5 0 -6 -3 -10 -7 -10 -18 3 -31 -2 -52 -20 -16 -14
-32 -18 -54 -14 -18 2 -40 6 -51 7 -10 1 -24 12 -30 25 -7 12 -15 18 -20 14
-4 -4 -4 0 -1 9 3 8 0 22 -8 29 -7 8 -14 19 -16 24 -6 26 -49 87 -55 77z m284
-157 c0 -2 -10 -9 -22 -15 -22 -11 -22 -10 -4 4 21 17 26 19 26 11z m-163 -58
c0 -8 -6 -14 -14 -14 -9 0 -10 4 -2 14 6 7 12 13 14 13 1 0 2 -6 2 -13z m6
-137 c3 -11 1 -18 -4 -14 -5 3 -9 12 -9 20 0 20 7 17 13 -6z"/>
<path d="M241 780 c-8 -4 -10 -13 -6 -20 6 -9 9 -9 16 1 7 11 9 11 9 -1 0 -15
196 -118 213 -112 5 1 6 -1 3 -6 -8 -14 16 -92 26 -86 6 4 8 -3 4 -17 -7 -23
-7 -23 9 -4 8 11 13 26 10 34 -3 9 -3 12 2 8 4 -5 8 -22 9 -39 1 -17 -2 -25
-6 -18 -5 8 -9 7 -14 -6 -4 -10 -3 -20 1 -23 4 -3 8 -14 9 -23 3 -68 5 -79 13
-73 6 3 7 -9 4 -30 -3 -19 -2 -35 3 -35 5 0 9 -12 10 -27 2 -52 8 -83 17 -83
4 0 6 -4 3 -9 -3 -5 1 -14 9 -21 11 -9 18 -9 30 3 17 17 20 47 5 47 -5 0 -9 8
-8 18 4 31 -14 142 -22 137 -4 -3 -6 4 -3 15 3 13 0 20 -8 20 -11 0 -11 2 1
10 8 5 10 10 3 10 -6 0 -9 9 -6 21 4 15 11 19 27 15 11 -3 26 -6 31 -6 6 0 4
-4 -2 -8 -10 -6 -5 -24 20 -70 18 -34 37 -59 42 -55 4 5 5 3 2 -4 -4 -6 0 -19
9 -27 8 -9 13 -16 9 -16 -3 0 1 -13 10 -30 9 -17 24 -30 34 -30 26 0 36 31 16
46 -9 7 -15 14 -14 16 5 8 -14 48 -23 48 -6 0 -9 3 -5 6 7 7 -72 167 -85 172
-4 2 -6 8 -3 12 5 7 -14 62 -51 154 -5 13 -4 17 3 13 7 -5 10 2 9 17 -2 18 1
23 12 18 10 -3 13 -1 8 6 -4 7 -2 12 5 12 10 0 10 3 2 11 -15 15 -45 -14 -47
-44 -1 -12 -8 -22 -16 -22 -8 -1 -14 -7 -12 -14 1 -7 -2 -10 -8 -6 -6 3 -8 11
-5 16 9 14 -8 11 -33 -7 -12 -8 -22 -12 -22 -8 0 4 -7 -1 -15 -12 -15 -18 -15
-18 -8 0 4 13 3 17 -5 12 -6 -3 -14 -1 -17 5 -4 5 -13 8 -21 5 -8 -3 -14 -1
-14 4 0 5 -13 16 -28 24 -21 11 -32 12 -47 3 -18 -9 -19 -9 -6 6 11 15 11 17
-2 17 -8 0 -17 -3 -20 -7 -2 -5 -2 -2 -1 4 4 17 -49 44 -65 33z m348 -113 c8
-10 7 -14 -2 -14 -8 0 -14 6 -14 14 0 7 1 13 2 13 2 0 8 -6 14 -13z m73 -209
c-7 -7 -12 -8 -12 -2 0 14 12 26 19 19 2 -3 -1 -11 -7 -17z m9 -41 c-10 -9
-11 -8 -5 6 3 10 9 15 12 12 3 -3 0 -11 -7 -18z m39 -17 c6 -11 8 -20 6 -20
-3 0 -10 9 -16 20 -6 11 -8 20 -6 20 3 0 10 -9 16 -20z m-23 -15 c0 -8 -4 -12
-9 -9 -5 3 -6 10 -3 15 9 13 12 11 12 -6z m-97 -92 c0 -5 -5 -15 -10 -23 -8
-12 -10 -11 -10 8 0 12 5 22 10 22 6 0 10 -3 10 -7z"/>
<path d="M852 728 c-7 -7 -12 -22 -12 -34 0 -17 5 -22 19 -19 14 3 18 -1 14
-11 -8 -20 14 -17 37 6 17 17 18 24 8 45 -8 18 -15 22 -22 15 -5 -5 -15 -10
-20 -10 -6 0 -4 5 4 10 13 9 13 10 0 10 -9 0 -21 -5 -28 -12z m24 -21 c8 3 14
-1 14 -8 0 -11 3 -11 10 1 5 8 10 11 10 5 0 -5 -5 -17 -10 -25 -5 -8 -10 -10
-10 -4 0 7 -9 14 -20 17 -11 3 -20 11 -19 19 0 9 2 9 5 1 3 -7 12 -9 20 -6z"/>
<path d="M754 484 c3 -8 2 -13 -3 -10 -4 3 -13 -6 -19 -19 -8 -17 -8 -25 -1
-25 6 0 8 -4 5 -8 -2 -4 -1 -14 4 -21 6 -10 14 -3 30 28 17 33 19 46 9 57 -15
19 -33 18 -25 -2z m0 -40 c3 -8 2 -12 -4 -9 -6 3 -10 10 -10 16 0 14 7 11 14
-7z"/>
<path d="M660 317 c0 -8 7 -20 15 -27 10 -9 15 -9 15 -1 0 6 -5 11 -11 11 -5
0 -8 4 -4 9 3 5 1 12 -5 16 -5 3 -10 0 -10 -8z"/>
</g>
</svg>
