<?xml version="1.0" encoding="utf-8"?>
<!-- Generator: Adobe Illustrator 23.0.3, SVG Export Plug-In . SVG Version: 6.00 Build 0)  -->
<svg version="1.1" id="Layer_1" xmlns="http://www.w3.org/2000/svg" xmlns:xlink="http://www.w3.org/1999/xlink" x="0px" y="0px"
	 viewBox="0 0 196 106" style="enable-background:new 0 0 196 106;" xml:space="preserve">
<style type="text/css">
	.st0{fill:#26AEE4;}
</style>
<g>
	<path d="M113.1,19.8c4.6-3.2,10.9-3.6,16.1-1.7c-0.4,2-0.9,4-1.4,6c-3.1-1.3-7-1.4-9.8,0.6c-2.7,2-3.6,5.4-3.6,8.6
		c-0.1,3.3,0.7,7,3.5,9c2.9,2.1,6.7,1.7,9.9,0.8c0.3,2,0.7,4,0.9,6c-3.4,1.1-7,1.3-10.5,0.7c-3.4-0.6-6.7-2.5-8.7-5.3
		c-2.8-4-3.4-9.2-2.8-13.9C107.4,26.4,109.5,22.3,113.1,19.8z"/>
	<path d="M68.4,18.3c5.5-0.8,11-1.2,16.6-0.7c4.2,0.4,8.8,1.7,11.3,5.3c3.1,4.6,2.8,11.3-0.9,15.4c-1.2,1.4-2.9,2.5-4.6,3.2
		c1.3,0.6,2.6,1.5,3.5,2.8c1.9,2.7,2.4,6.1,3.2,9.3c0.8,3,1.3,6.1,2.5,9.1c-3.5,0-7.1,0-10.6,0c-1.4-3.7-2.1-7.5-2.9-11.3
		c-0.4-1.9-0.9-3.9-2.4-5.2c-1.5-1.2-3.6-0.9-5.4-1c0,5.8,0,11.7,0,17.5c-3.4,0-6.8,0-10.2,0C68.4,47.9,68.4,33.1,68.4,18.3z
		 M78.6,25.4c0,4.1,0,8.1,0,12.2c2.3,0,4.8,0.3,6.9-1.1c3.1-2,3.5-6.7,1.3-9.5C84.7,24.7,81.3,25,78.6,25.4z"/>
	<path d="M19,62.6c0-15,0-30,0-45c3.4,0,6.8,0,10.3,0c0,12.1,0,24.2,0,36.3c5,0,10,0,14.9,0c0,2.9,0,5.8,0,8.7
		C35.8,62.6,27.4,62.6,19,62.6z"/>
	<path d="M49.8,17.7c3.4,0,6.8,0,10.3,0c0,15,0,30,0,45c-3.4,0-6.8,0-10.3,0C49.8,47.6,49.8,32.7,49.8,17.7z"/>
	<path d="M132.3,40c4.4-0.6,9-1,13.3,0.5c3.3,1.1,5.6,4.2,6.3,7.5c0.8,3.9,0.5,8.3-1.4,11.8c-1.2,2.3-3.4,4-5.9,4.7
		c-4,1.2-8.2,1-12.2,0.5C132.3,56.7,132.3,48.3,132.3,40z M138.1,44.1c0,5.6,0,11.1,0,16.7c1.9,0.1,3.9,0,5.4-1.3
		c2-1.7,2.5-4.5,2.5-7.1c0.1-2.6-0.4-5.5-2.4-7.2C142.1,43.9,140,43.8,138.1,44.1z"/>
	<path d="M31.8,69.3c1.5-0.4,3,1,2.6,2.5c-0.1,1.7-2.5,2.4-3.6,1.3C29.5,72,30.1,69.5,31.8,69.3z"/>
	<path d="M50.4,69.4c1.4-0.6,3.2,0.5,3.1,2c0.1,1.7-1.9,2.8-3.3,1.9C48.7,72.5,48.8,70,50.4,69.4z"/>
	<path d="M55.6,69.2c1.4,0,2.8,0,4.3,0c0,6.6,0,13.1,0,19.7c-1.4,0-2.8,0-4.3,0C55.6,82.4,55.6,75.8,55.6,69.2z"/>
	<path d="M103.5,69.2c1.4,0,2.8,0,4.3,0c0,6.6-0.1,13.1,0.1,19.7c-1.2,0-2.5,0-3.7,0c-0.1-0.6-0.1-1.2-0.2-1.8
		c-1.1,1.9-3.7,2.7-5.6,1.6c-2-1.1-3-3.5-3.1-5.6c-0.2-2.5,0.3-5.3,2.2-7c1.7-1.6,4.7-1.7,6.2,0.2C103.5,74,103.5,71.6,103.5,69.2z
		 M101.1,78.4c-1.7,0.7-1.8,3-1.6,4.7c0,1.5,1.3,3.3,2.9,2.5c1.6-0.9,1-3.2,1.1-4.7C103.7,79.5,102.6,77.9,101.1,78.4z"/>
	<path d="M133.1,69.4c0.9,0,1.9,0,2.8,0c0.4,0.8,0.8,1.6,1.3,2.4c0.4-0.8,0.9-1.6,1.3-2.4c0.9,0,1.9,0,2.8,0
		c-0.9,1.4-1.8,2.8-2.6,4.2c-1,0-2,0-2.9,0C134.8,72.1,133.9,70.7,133.1,69.4z"/>
	<path d="M143.9,72.6c1.4-0.4,2.8-0.8,4.2-1.2c0,1.2,0,2.5,0,3.7c0.9,0,1.9,0,2.8,0c0,1,0,2.1,0,3.1c-0.9,0-1.9,0-2.8,0
		c0,1.7,0,3.5,0,5.2c0,0.7,0,1.5,0.6,1.9c0.6,0.4,1.4,0.2,2,0.2c0,1.1,0,2.2,0,3.3c-1.6,0.3-3.4,0.6-4.9-0.2c-1.4-0.7-1.9-2.4-2-3.8
		c-0.1-2.2,0-4.4,0-6.6c-0.6,0-1.1,0-1.7,0c0-1,0-2.1,0-3.1c0.6,0,1.1,0,1.7,0C143.9,74.3,143.9,73.5,143.9,72.6z"/>
	<path d="M20.4,77.7c1.9-2.7,5.6-3.3,8.6-2.3c-0.2,1.1-0.4,2.2-0.6,3.2c-1.3-0.3-2.9-0.5-4,0.5c-1.4,1.5-1.4,4-0.2,5.6
		c1,1.3,2.8,1.2,4.2,0.8c0.1,1.1,0.3,2.1,0.4,3.2c-2.6,0.8-5.9,0.7-8-1.4C18.5,84.8,18.5,80.5,20.4,77.7z"/>
	<path d="M30.1,75.2c1.4,0,2.8,0,4.3,0c0,4.6,0,9.2,0,13.8c-1.4,0-2.8,0-4.3,0C30.1,84.3,30.1,79.8,30.1,75.2z"/>
	<path d="M35.3,75.2c1.5,0,3.1,0,4.6,0c0.7,3.2,1.5,6.5,2,9.8c0.5-3.3,1.3-6.5,2-9.8c1.4,0,2.9,0,4.3,0c-1.5,4.6-3,9.2-4.4,13.8
		c-1.4,0-2.7,0-4.1,0C38.2,84.3,36.8,79.8,35.3,75.2z"/>
	<path d="M49.2,75.2c1.4,0,2.8,0,4.3,0c0,4.6,0,9.2,0,13.8c-1.4,0-2.8,0-4.3,0C49.2,84.3,49.2,79.8,49.2,75.2z"/>
	<path d="M61.9,75.2c1.2,0,2.4,0,3.6,0c0.1,0.6,0.1,1.2,0.2,1.8c1.4-1.9,4.2-2.7,6.3-1.4c1.5,1,1.9,2.9,2,4.6c0,2.9,0,5.9,0,8.8
		c-1.4,0-2.8,0-4.3,0c0-2.8,0-5.6,0-8.4c0-0.9-0.5-2.1-1.5-2.1c-1.1-0.1-1.9,1-1.9,2.1c-0.1,2.8,0,5.6,0,8.4c-1.4,0-2.8,0-4.3,0
		C62,84.3,62.1,79.7,61.9,75.2z"/>
	<path d="M79.7,75.3c2.4-0.9,5.4-0.4,7,1.7c1.9,2.5,2,6.3,0.6,9.1c-1.9,3.6-7.5,4.2-10.1,1.1c-1.7-2-2-4.8-1.5-7.3
		C76.2,77.9,77.6,76,79.7,75.3z M81.1,78.2c-1.4,1-1.3,3-1.3,4.5c0.1,1.3,0.4,3.1,1.9,3.3c1.1,0.2,1.8-1,2-1.9
		c0.4-1.7,0.4-3.6-0.4-5.2C82.9,78.1,81.9,77.8,81.1,78.2z"/>
	<path d="M109.9,75.2c1.2,0,2.4,0,3.6,0c0.1,0.8,0.1,1.6,0.2,2.4c0.7-1.7,2.3-3,4.2-2.6c0,1.4,0,2.7,0,4.1c-1.5-0.3-3.4,0.3-3.6,2.1
		c-0.2,2.6,0,5.2-0.1,7.8c-1.4,0-2.8,0-4.3,0C110,84.3,110.1,79.7,109.9,75.2z"/>
	<path d="M119,75.2c1.4,0,2.8,0,4.3,0c0,2.6,0,5.3,0,7.9c0,0.9,0.2,2.2,1.2,2.5c1.1,0.4,2.2-0.6,2.2-1.8c0.1-2.9,0-5.8,0-8.7
		c1.4,0,2.8,0,4.3,0c0,4.6-0.1,9.2,0.1,13.8c-1.2,0-2.5,0-3.7,0c-0.1-0.6-0.1-1.2-0.2-1.8c-1.4,2-4.3,2.7-6.3,1.3
		c-1.4-1.1-1.8-3-1.9-4.7C119,80.9,119,78.1,119,75.2z"/>
	<path d="M134.4,75.9c2-1.4,4.7-1.2,6.9-0.3c-0.2,1-0.5,2-0.7,3c-1.1-0.4-2.2-0.9-3.4-0.5c-0.6,0.2-0.8,1.2-0.3,1.6
		c1.2,0.9,2.7,1.1,3.7,2.2c1.9,1.7,1.5,5.2-0.7,6.5c-2.3,1.3-5.2,1.1-7.6,0c0.2-1,0.5-2.1,0.7-3.1c1.3,0.6,2.7,1.1,4.1,0.7
		c0.9-0.2,0.9-1.5,0.1-1.9c-1.3-0.7-2.9-1.2-3.8-2.4C132,80,132.6,77.2,134.4,75.9z"/>
	<path d="M159.6,75.2c1.4,0,2.9,0,4.3,0c-1.5,4.6-3,9.2-4.4,13.8c-1.4,0-2.7,0-4.1,0c-1.5-4.6-3-9.2-4.4-13.8c1.5,0,3.1,0,4.6,0
		c0.7,3.3,1.5,6.5,2,9.8C158.2,81.6,159,78.4,159.6,75.2z"/>
	<path d="M168.4,75.3c2.4-0.8,5.4-0.3,7,1.8c1.9,2.6,2,6.3,0.6,9.1c-1.9,3.6-7.4,4.1-10.1,1.2c-1.7-2-2-4.8-1.5-7.3
		C164.9,77.9,166.3,75.9,168.4,75.3z M169.9,78.2c-1,0.6-1.2,2-1.3,3.1c-0.1,1.4,0,2.9,0.7,4.1c0.5,0.8,1.7,1,2.3,0.3
		c0.8-0.8,0.9-1.9,1-2.9c0.1-1.4,0-2.8-0.7-4C171.5,78.1,170.6,77.8,169.9,78.2z"/>
	<path class="st0" d="M154.3,18.1c3.9-1.5,8.3-1.5,12.2-0.2c4,1.3,7.4,4.4,8.9,8.2c1.7,4,1.9,8.5,1,12.7c-0.9,4.2-3.5,8.1-7.5,9.9
		c-4.4,2-9.7,1.9-14.2,0.4c0.3-2,0.6-4,0.9-6c3.1,0.9,6.7,1.2,9.5-0.5c2.7-1.6,3.8-4.9,3.9-7.9c0.2-3.4-0.4-7.4-3.2-9.7
		c-2.8-2.4-7-2.3-10.3-1C155.3,22.2,154.8,20.2,154.3,18.1z"/>
	<path class="st0" d="M122.7,30.3c2.4-1.1,5.1,1.4,4.8,3.9c-0.1,2.4-2.9,4.3-5,3C119.7,35.9,119.9,31.4,122.7,30.3z"/>
	<path class="st0" d="M158.2,30.3c2.3-1.1,5,1,4.9,3.5c0.1,2.4-2.6,4.6-4.9,3.4C155.3,36,155.4,31.5,158.2,30.3z"/>
</g>
</svg>
